# xmcd
#
# Track frame offsets:
#	150
#	15679
#	30530
#	50357
#	64292
#	80219
#	101761
#	118972
#	137952
#	154098
#	171519
#	189017
#
# Disc length: 2757 seconds
#
# Revision: 1
# Processed by: cddbd v1.5.2PL0 Copyright (c) Steve Scherf et al.
# Submitted via: audiograbber 1.83.01
#
DISCID=a80ac30c
DTITLE=Crakajak - Long, Long Way From Home
DYEAR=2002
DGENRE=Country
TTITLE0=Stuck In The Middle
TTITLE1=Kiss Kiss
TTITLE2=Alone With You
TTITLE3=Long, Long Way From Home
TTITLE4=Momentary Burst Of Happiness
TTITLE5=The Day That Waits Tomorrow
TTITLE6=Muster In Katherine
TTITLE7=Breaking Down
TTITLE8=Short Ride On A Fast Machine (The Bull's Revenge)
TTITLE9=Grace In Forgiveness
TTITLE10=Walk You Down The Aisle
TTITLE11=A Travellin' Man
EXTD=
EXTT0=
EXTT1=
EXTT2=
EXTT3=
EXTT4=
EXTT5=
EXTT6=
EXTT7=
EXTT8=
EXTT9=
EXTT10=
EXTT11=
PLAYORDER=
